<svg xmlns="http://www.w3.org/2000/svg" width="1024" height="1024" viewBox="0 0 256 256">
<rect width="256" height="256" fill="#e8e5dd"/>
<g fill="none" stroke-linecap="round">
<path d="M-20 34 C42 17 110 55 274 29" stroke="#fff" stroke-opacity=".09" stroke-width="19"/>
<path d="M-10 86 C55 103 112 72 265 92" stroke="#726c60" stroke-opacity=".06" stroke-width="11"/>
<path d="M-10 165 C39 140 158 177 275 151" stroke="#fff" stroke-opacity=".08" stroke-width="27"/>
<path d="M-10 219 C73 201 141 233 273 211" stroke="#706b63" stroke-opacity=".055" stroke-width="15"/>
<path d="M0 4 H256 M4 0 V256" stroke="#746f64" stroke-opacity=".06" stroke-width="1"/><path d="M0 12 H256 M12 0 V256" stroke="#746f64" stroke-opacity=".06" stroke-width="1"/><path d="M0 20 H256 M20 0 V256" stroke="#746f64" stroke-opacity=".06" stroke-width="1"/><path d="M0 28 H256 M28 0 V256" stroke="#746f64" stroke-opacity=".06" stroke-width="1"/><path d="M0 36 H256 M36 0 V256" stroke="#746f64" stroke-opacity=".06" stroke-width="1"/><path d="M0 44 H256 M44 0 V256" stroke="#746f64" stroke-opacity=".06" stroke-width="1"/><path d="M0 52 H256 M52 0 V256" stroke="#746f64" stroke-opacity=".06" stroke-width="1"/><path d="M0 60 H256 M60 0 V256" stroke="#746f64" stroke-opacity=".06" stroke-width="1"/><path d="M0 68 H256 M68 0 V256" stroke="#746f64" stroke-opacity=".06" stroke-width="1"/><path d="M0 76 H256 M76 0 V256" stroke="#746f64" stroke-opacity=".06" stroke-width="1"/><path d="M0 84 H256 M84 0 V256" stroke="#746f64" stroke-opacity=".06" stroke-width="1"/><path d="M0 92 H256 M92 0 V256" stroke="#746f64" stroke-opacity=".06" stroke-width="1"/><path d="M0 100 H256 M100 0 V256" stroke="#746f64" stroke-opacity=".06" stroke-width="1"/><path d="M0 108 H256 M108 0 V256" stroke="#746f64" stroke-opacity=".06" stroke-width="1"/><path d="M0 116 H256 M116 0 V256" stroke="#746f64" stroke-opacity=".06" stroke-width="1"/><path d="M0 124 H256 M124 0 V256" stroke="#746f64" stroke-opacity=".06" stroke-width="1"/><path d="M0 132 H256 M132 0 V256" stroke="#746f64" stroke-opacity=".06" stroke-width="1"/><path d="M0 140 H256 M140 0 V256" stroke="#746f64" stroke-opacity=".06" stroke-width="1"/><path d="M0 148 H256 M148 0 V256" stroke="#746f64" stroke-opacity=".06" stroke-width="1"/><path d="M0 156 H256 M156 0 V256" stroke="#746f64" stroke-opacity=".06" stroke-width="1"/><path d="M0 164 H256 M164 0 V256" stroke="#746f64" stroke-opacity=".06" stroke-width="1"/><path d="M0 172 H256 M172 0 V256" stroke="#746f64" stroke-opacity=".06" stroke-width="1"/><path d="M0 180 H256 M180 0 V256" stroke="#746f64" stroke-opacity=".06" stroke-width="1"/><path d="M0 188 H256 M188 0 V256" stroke="#746f64" stroke-opacity=".06" stroke-width="1"/><path d="M0 196 H256 M196 0 V256" stroke="#746f64" stroke-opacity=".06" stroke-width="1"/><path d="M0 204 H256 M204 0 V256" stroke="#746f64" stroke-opacity=".06" stroke-width="1"/><path d="M0 212 H256 M212 0 V256" stroke="#746f64" stroke-opacity=".06" stroke-width="1"/><path d="M0 220 H256 M220 0 V256" stroke="#746f64" stroke-opacity=".06" stroke-width="1"/><path d="M0 228 H256 M228 0 V256" stroke="#746f64" stroke-opacity=".06" stroke-width="1"/><path d="M0 236 H256 M236 0 V256" stroke="#746f64" stroke-opacity=".06" stroke-width="1"/><path d="M0 244 H256 M244 0 V256" stroke="#746f64" stroke-opacity=".06" stroke-width="1"/><path d="M0 252 H256 M252 0 V256" stroke="#746f64" stroke-opacity=".06" stroke-width="1"/></g>
</svg>